<?xml version="1.0" encoding="UTF-8" standalone="no"?>
<svg width="265px" height="240px" viewBox="0 0 265 240" version="1.1" xmlns="http://www.w3.org/2000/svg" xmlns:xlink="http://www.w3.org/1999/xlink">
    <!-- Generator: Sketch 45.2 (43514) - http://www.bohemiancoding.com/sketch -->
    <title>Create,Share-Team Onboarding</title>
    <desc>Created with Sketch.</desc>
    <defs>
        <linearGradient x1="70.7762778%" y1="-117.916742%" x2="73.8164703%" y2="183.594333%" id="linearGradient-1">
            <stop stop-color="#091E42" offset="0%"></stop>
            <stop stop-color="#091E42" stop-opacity="0.91" offset="9%"></stop>
            <stop stop-color="#091E42" stop-opacity="0" offset="100%"></stop>
        </linearGradient>
        <linearGradient x1="-3%" y1="3%" x2="97%" y2="3%" id="linearGradient-2">
            <stop stop-color="#FFFFFF" offset="22%"></stop>
            <stop stop-color="#E8F1FF" offset="33%"></stop>
            <stop stop-color="#ACCDFF" offset="57%"></stop>
            <stop stop-color="#4D93FF" offset="91%"></stop>
            <stop stop-color="#3384FF" offset="100%"></stop>
        </linearGradient>
        <linearGradient x1="0%" y1="49.9968129%" x2="100.00797%" y2="49.9968129%" id="linearGradient-3">
            <stop stop-color="#FF991F" offset="0%"></stop>
            <stop stop-color="#FFC400" offset="100%"></stop>
        </linearGradient>
        <linearGradient x1="50%" y1="0%" x2="50%" y2="100%" id="linearGradient-4">
            <stop stop-color="#DBDEE3" offset="0%"></stop>
            <stop stop-color="#FFFFFF" stop-opacity="0" offset="100%"></stop>
        </linearGradient>
        <path d="M0.719393939,71.8048485 L39.7448485,74.9272727 L39.7448485,20.6242424 C39.7448126,15.3425784 37.6039577,10.2864749 33.811239,6.61070831 C30.0185204,2.93494171 24.8978634,0.953448831 19.6187879,1.11878788 L19.6187879,1.11878788 C9.08202753,1.44617438 0.709850286,10.0823972 0.70969697,20.6242424 L0.719393939,71.8048485 Z" id="path-5"></path>
        <linearGradient x1="50.0032762%" y1="99.9985908%" x2="50.0032762%" y2="-0.00216283545%" id="linearGradient-7">
            <stop stop-color="#253858" stop-opacity="0.1" offset="9%"></stop>
            <stop stop-color="#253858" offset="100%"></stop>
        </linearGradient>
        <linearGradient x1="50%" y1="100%" x2="50%" y2="0%" id="linearGradient-8">
            <stop stop-color="#4C9AFF" stop-opacity="0.6" offset="0%"></stop>
            <stop stop-color="#3B8EFF" stop-opacity="0.69" offset="18%"></stop>
            <stop stop-color="#0E6FFF" stop-opacity="0.93" offset="56%"></stop>
            <stop stop-color="#0065FF" offset="67%"></stop>
        </linearGradient>
        <linearGradient x1="49.9117005%" y1="100.053591%" x2="49.9117005%" y2="0.040192926%" id="linearGradient-9">
            <stop stop-color="#4C9AFF" offset="0%"></stop>
            <stop stop-color="#0065FF" offset="100%"></stop>
        </linearGradient>
        <linearGradient x1="0.0516208566%" y1="50.0080218%" x2="100.036861%" y2="50.0080218%" id="linearGradient-10">
            <stop stop-color="#0052CC" offset="0%"></stop>
            <stop stop-color="#2684FF" offset="100%"></stop>
        </linearGradient>
        <linearGradient x1="0%" y1="50.0017162%" x2="100%" y2="50.0017162%" id="linearGradient-11">
            <stop stop-color="#00875A" offset="0%"></stop>
            <stop stop-color="#02895C" offset="38%"></stop>
            <stop stop-color="#0A9062" offset="56%"></stop>
            <stop stop-color="#179C6D" offset="70%"></stop>
            <stop stop-color="#29AE7D" offset="82%"></stop>
            <stop stop-color="#41C490" offset="93%"></stop>
            <stop stop-color="#57D9A3" offset="100%"></stop>
        </linearGradient>
        <linearGradient x1="0.0734214391%" y1="49.9527862%" x2="100%" y2="49.9527862%" id="linearGradient-12">
            <stop stop-color="#36B37E" offset="0%"></stop>
            <stop stop-color="#79F2C0" offset="100%"></stop>
        </linearGradient>
        <linearGradient x1="-15.4980113%" y1="51.5089272%" x2="102.343989%" y2="44.9536277%" id="linearGradient-13">
            <stop stop-color="#FFAB00" offset="35%"></stop>
            <stop stop-color="#FFC400" offset="100%"></stop>
        </linearGradient>
        <linearGradient x1="73.3553479%" y1="-18.1863339%" x2="43.3961682%" y2="71.6496918%" id="linearGradient-14">
            <stop stop-color="#FFC400" offset="0%"></stop>
            <stop stop-color="#FF991F" offset="56%"></stop>
        </linearGradient>
    </defs>
    <g id="Flow" stroke="none" stroke-width="1" fill="none" fill-rule="evenodd">
        <g id="01-Default" transform="translate(-772.000000, -400.000000)">
            <g id="Content" transform="translate(360.000000, 156.000000)">
                <g id="content" transform="translate(28.000000, 92.000000)">
                    <g id="empty-state_placeholder" transform="translate(272.000000, 152.000000)">
                        <g id="Create,Share-Team-Onboarding" transform="translate(112.000000, 0.000000)">
                            <g id="Layer_2">
                                <g>
                                    <g id="Layer_1-2">
                                        <ellipse id="Oval" fill="url(#linearGradient-1)" fill-rule="nonzero" opacity="0.25" style="mix-blend-mode: multiply;" cx="26.9478788" cy="236.048485" rx="17.9490909" ry="3.70424242"></ellipse>
                                        <path d="M70.6812121,45.28 C68.6836364,45.4690909 67.0739394,47.68 67.0739394,50.2109091 L67.0739394,157.847273 C67.0739394,160.38303 68.6836364,162.603636 70.6812121,162.807273 L119.500606,167.859394 L119.500606,198.632727 L170.162424,206.738182 L169.900606,174.835152 L226.012121,178.88 C227.508002,179.063515 229.009748,178.587462 230.126718,177.575674 C231.243687,176.563885 231.865462,175.116382 231.830303,173.609697 L231.830303,35.8254545 C231.86347,34.3154739 231.243032,32.8647109 230.128288,31.845649 C229.013544,30.8265871 227.513073,30.3384864 226.012121,30.5066667 L70.6812121,45.28 Z" id="Shape" fill="url(#linearGradient-3)" fill-rule="nonzero"></path>
                                        <polygon id="Path-4" fill="url(#linearGradient-4)" points="170.25 207 84.75 237.75 40.5 230.25 111.75 195.75"></polygon>
                                        <polygon id="_Clipping_Path_3" fill="#B2D4FF" fill-rule="nonzero" points="72.2472727 149.047273 72.2472727 51.7575758 223.529697 39.0545455 223.529697 161.149091"></polygon>
                                        <g id="Group" transform="translate(93.575758, 47.515152)" fill-rule="nonzero">
                                            <polygon id="Shape" fill="#FFFFFF" points="33.0230303 6.53575758 0.0727272727 8.95030303 0.0727272727 96.3878788 33.0230303 98.6715152"></polygon>
                                            <g id="_Group_" transform="translate(38.303030, 40.727273)">
                                                <polygon id="Shape" fill="#FFFFFF" points="83.6751515 64.1115152 0.198787879 58.3272727 0.198787879 1.66787879 83.6751515 0.198787879"></polygon>
                                                <polygon id="Shape" fill="#DEEBFF" points="9.19757576 49.929697 9.19757576 10.5115152 74.6763636 9.35272727 74.6763636 54.4678788"></polygon>
                                            </g>
                                            <polygon id="Shape" fill="#FFFFFF" points="121.978182 32.150303 38.5018182 34.6181818 38.5018182 6.13333333 121.978182 0.0145454545"></polygon>
                                            <path d="M57.1636364,19.3115152 C57.1636364,23.0060606 54.5018182,26.0993939 51.2484848,26.2448485 C47.9951515,26.390303 45.430303,23.5442424 45.430303,19.9127273 C45.430303,16.2812121 48.0193939,13.1830303 51.2484848,12.9842424 C54.4775758,12.7854545 57.1636364,15.6169697 57.1636364,19.3115152 Z" id="Shape" fill="#DEEBFF"></path>
                                            <polygon id="Shape" fill="#DEEBFF" points="90.0848485 10.7054545 93.9006061 17.5272727 90.0848485 24.7418182 82.5793939 25.0521212 78.889697 18.2981818 82.5793939 11.1660606"></polygon>
                                            <polygon id="Shape" fill="#B2D4FF" points="67.1466667 12.009697 74.3224242 25.289697 60.1212121 25.8812121"></polygon>
                                            <polygon id="Shape" fill="#B2D4FF" points="113.643636 23.7624242 99.7721212 24.3393939 99.7721212 10.0024242 113.643636 9.14424242"></polygon>
                                        </g>
                                        <g id="Group-3" transform="translate(118.500000, 81.000000)">
                                            <mask id="mask-6" fill="white">
                                                <use xlink:href="#path-5"></use>
                                            </mask>
                                            <use id="_Clipping_Path_4" fill="#0065FF" fill-rule="nonzero" xlink:href="#path-5"></use>
                                            <g id="Group" mask="url(#mask-6)" fill-rule="nonzero">
                                                <g transform="translate(0.287879, -13.606061)" id="Shape">
                                                    <path d="M8.37333333,0.775757576 C1.37212121,5.10545455 2.70545455,27.2678788 14.0606061,36.8145455 C19.8545455,41.6630303 23.3842424,39.1175758 29.2412121,43.8787879 C40.9066667,53.3575758 35.7769697,71.0933333 41.3187879,72.6109091 C47.9806061,74.4387879 65.6,51.5975758 63.4375758,28.2181818 C63.0545455,24.0678788 61.8230303,10.7636364 53.3624242,5.60969697 C45.7793939,0.998787879 39.6993939,7.34060606 23.0593939,3.78181818 C13.7115152,1.77939394 11.3890909,-1.09090909 8.37333333,0.775757576 Z" fill="url(#linearGradient-7)"></path>
                                                    <polygon fill="#0049B0" points="0.431515152 85.4642424 40.9987879 76.7127273 40.9987879 88.6545455"></polygon>
                                                </g>
                                            </g>
                                        </g>
                                        <polygon id="Shape" fill="url(#linearGradient-8)" fill-rule="nonzero" points="158.244848 155.927273 84.1648485 237.958788 39.9515152 230.375758 119.219394 152.804848"></polygon>
                                        <path d="M87.0739394,148.446061 C86.5406061,148.344242 86.1042424,147.42303 86.3078788,146.686061 C86.4483799,146.239823 86.7630637,145.869196 87.1806061,145.658182 C87.6121212,145.425455 87.7575758,145.570909 88.2715152,145.406061 C89.3187879,145.066667 89.769697,144.111515 90.0121212,144.247273 C90.070303,144.281212 90.1236364,144.38303 90.0848485,144.693333 C90.1551871,144.696531 90.2206601,144.730152 90.2642424,144.785455 C90.3466667,144.921212 90.1769697,145.163636 90.0945455,145.270303 C89.6226277,145.982407 89.1043349,146.662667 88.5430303,147.306667 C87.7575758,148.101818 87.3406061,148.494545 87.0739394,148.446061 Z" id="Shape" fill="#D4B696" fill-rule="nonzero"></path>
                                        <path d="M87.6654545,144.441212 C87.406653,144.579474 87.1904217,144.785648 87.04,145.037576 C86.7878788,145.454545 86.0072727,146.753939 86.3612121,147.064242 C86.5309091,147.214545 86.889697,147.064242 87.0545455,146.967273 C87.3793939,146.773333 87.2872727,146.269091 87.6024242,145.997576 C87.670303,145.934545 87.7042424,145.900606 87.7769697,145.827879 C87.9466667,145.653333 88.0339394,145.566061 88.0145455,145.512727 C87.9951515,145.459394 87.6945455,145.483636 87.6072727,145.347879 C87.4472727,145.115152 88.0921212,144.484848 87.9806061,144.378182 C87.8690909,144.271515 87.7575758,144.407273 87.6654545,144.441212 Z" id="Shape" fill="#D4B696" fill-rule="nonzero"></path>
                                        <path d="M89.769697,146.395152 C89.5425311,146.669875 89.2663361,146.900038 88.9551515,147.073939 C87.8884848,147.815758 87.3454545,148.450909 87.2727273,148.38303 C87.2,148.315152 87.3890909,148.111515 87.4812121,147.985455 C88.1939394,146.972121 89.8278788,145.02303 90.1381818,145.246061 C90.2836364,145.352727 90.08,145.973333 89.769697,146.395152 Z" id="Shape" fill="#D4B696" fill-rule="nonzero"></path>
                                        <polygon id="Shape" fill="#D4B696" fill-rule="nonzero" points="86.2642424 147.350303 86.7830303 149.50303 88.4945455 149.18303 88.2763636 147.350303"></polygon>
                                        <path d="M63.8884848,142.787879 C64.4121212,142.94303 65.2072727,142.30303 65.3721212,141.570909 C65.4502357,141.109001 65.3383253,140.63513 65.0618182,140.25697 C64.7854545,139.854545 64.5769697,139.917576 64.2036364,139.534545 C63.4278788,138.753939 63.4569697,137.701818 63.1806061,137.711515 C63.1127273,137.711515 63.0206061,137.779394 62.9139394,138.075152 C62.8507234,138.046735 62.7783675,138.046735 62.7151515,138.075152 C62.5793939,138.157576 62.6181818,138.453333 62.6424242,138.589091 C62.7388005,139.438593 62.8910495,140.280822 63.0981818,141.110303 C63.4472727,142.17697 63.6315152,142.710303 63.8884848,142.787879 Z" id="Shape" fill="#D4B696" fill-rule="nonzero"></path>
                                        <path d="M65.1830303,138.947879 C65.350553,139.188395 65.449442,139.469977 65.4690909,139.762424 C65.5030303,140.247273 65.609697,141.76 65.1539394,141.876364 C64.9357576,141.934545 64.6690909,141.638788 64.5769697,141.473939 C64.3781818,141.153939 64.6884848,140.746667 64.5333333,140.353939 C64.4993939,140.266667 64.4848485,140.218182 64.4557576,140.126061 C64.3830303,139.893333 64.3442424,139.77697 64.3830303,139.738182 C64.4218182,139.699394 64.6787879,139.854545 64.8193939,139.77697 C65.0666667,139.641212 64.7806061,138.807273 64.9357576,138.729697 C65.0133333,138.710303 65.1393939,138.889697 65.1830303,138.947879 Z" id="Shape" fill="#D4B696" fill-rule="nonzero"></path>
                                        <path d="M62.4193939,139.733333 C62.4974574,140.079493 62.6388211,140.408246 62.8363636,140.70303 C63.4472727,141.847273 63.6460606,142.642424 63.7430303,142.642424 C63.84,142.642424 63.7430303,142.346667 63.7430303,142.191515 C63.5684848,140.964848 63.0012121,138.482424 62.6230303,138.540606 C62.4339394,138.569697 62.3369697,139.219394 62.4193939,139.733333 Z" id="Shape" fill="#D4B696" fill-rule="nonzero"></path>
                                        <polygon id="Shape" fill="#D4B696" fill-rule="nonzero" points="63.3987879 141.992727 62.8121212 143.621818 64.6836364 143.907879 65.3721212 141.566061"></polygon>
                                        <path d="M69.3624242,175.515152 C69.0723451,176.745259 68.8473858,177.989818 68.6884848,179.243636 C68.4363636,181.236364 68.3733333,183.054545 68.5478788,187.93697 C68.6157576,189.803636 68.7175758,192.198788 68.8824242,194.986667 C68.8080808,196.147071 68.749899,197.326869 68.7078788,198.526061 C68.5520883,202.908358 68.6265342,207.295814 68.9309091,211.670303 L71.5393939,211.704242 C71.7753535,207.825455 72.0985859,203.844848 72.5090909,199.762424 C72.6610101,198.278788 72.8226263,196.809697 72.9939394,195.355152 C73.1054545,194.424242 73.2945455,192.930909 73.5515152,191.098182 C74.729697,182.710303 75.5248485,180.528485 74.2206061,178.443636 C73.6969697,177.629091 72.4751515,176.242424 69.3624242,175.515152 Z" id="Shape" fill="url(#linearGradient-9)" fill-rule="nonzero"></path>
                                        <path d="M77.5757576,175.161212 C81.0320388,179.586862 84.2029031,184.228178 87.0690909,189.05697 C90.045799,194.071248 92.6875267,199.276958 94.9769697,204.64 L92.3830303,205.381818 C91.4860606,204.179394 90.3612121,202.671515 89.0666667,200.930909 C86.6424242,197.692121 86.08,196.882424 85.3963636,195.68 C84.5458122,194.174566 83.8443015,192.589671 83.3018182,190.947879 L79.6266667,188.974545 C75.8012121,186.909091 72.4993939,185.095758 70.2012121,182.506667 C69.3236364,181.53697 68.6109091,180.450909 68.6739394,179.253333 C68.6739394,179.025455 68.7660606,178.589091 68.9212121,177.730909 C69.0763636,176.872727 69.2266667,176.126061 69.3236364,175.646061 C72.0797161,175.908189 74.8597207,175.74466 77.5660606,175.161212 L77.5757576,175.161212 Z" id="Shape" fill="url(#linearGradient-10)" fill-rule="nonzero"></path>
                                        <path d="M94.5163636,202.763636 C94.8831057,203.696911 95.325803,204.598521 95.84,205.459394 L95.84,205.459394 C96.4802889,206.529455 97.6905568,207.12224 98.9284848,206.972121 L101.265455,206.690909 L101.391515,207.078788 L98.1284848,208.882424 C97.7939394,208.911515 96.8484848,209.003636 96.8,209.323636 C96.8,209.391515 96.8,209.493333 96.9939394,209.633939 C96.6965657,209.785859 96.3862626,209.934545 96.0630303,210.08 C95.7388111,210.224498 95.3576452,210.113837 95.1612121,209.818182 C94.2545455,208.450909 91.8109091,204.746667 91.5733333,204.189091 L94.5163636,202.763636 Z" id="Shape" fill="#253858" fill-rule="nonzero"></path>
                                        <path d="M71.7284848,210.220606 C71.6557576,210.598788 71.5781818,211.558788 71.529697,212.518788 C71.4511336,213.913494 72.2150307,215.219758 73.4690909,215.835152 L74.9575758,216.552727 L74.8654545,216.911515 L71.4715152,216.693333 C71.2,216.547879 70.4290909,216.16 70.2351515,216.378182 C70.1915152,216.426667 70.1672727,216.518788 70.2351515,216.712727 C69.750303,216.664242 69.2654545,216.601212 68.7806061,216.513939 L68.6012121,216.281212 C68.6012121,216.130909 68.6012121,215.946667 68.630303,215.733333 C68.7078788,213.793939 68.630303,210.535758 68.7515152,209.866667 L71.7284848,210.220606 Z" id="Shape" fill="#253858" fill-rule="nonzero"></path>
                                        <path d="M78.7927273,162.715152 C76.1665575,162.554595 73.5510102,162.25193 70.9575758,161.808485 L70.5551515,161.624242 L70.3612121,161.532121 C68.7321212,160.73697 64.9260606,158.487273 63.6412121,153.774545 C62.1866667,148.441212 65.0521212,144.213333 65.4642424,143.61697 L62.5939394,143.132121 C61.8181818,144.441212 59.5539394,148.635152 60.4557576,153.924848 C61.2654545,158.652121 64.1648485,161.682424 65.4690909,163.044848 C66.5311351,164.152754 67.7152478,165.136804 68.9987879,165.978182 C70.0686184,169.249851 70.137834,172.766342 69.1975758,176.077576 L78.5212121,176.378182 C77.3527273,174.986667 77.2072727,173.953939 77.2945455,173.255758 C77.4933333,171.694545 78.9818182,171.010909 79.0933333,169.158788 C79.1244039,168.557772 79.0182902,167.957566 78.7830303,167.403636 C79.8981818,167.2 84.6012121,166.220606 87.7042424,161.900606 C92.1987879,155.689697 89.289697,148.368485 89.1006061,147.922424 L86.1915152,149.507879 C86.7716307,151.080373 87.0480365,152.74868 87.0060606,154.424242 C86.729697,158.97697 82.8024242,162.802424 78.7927273,162.715152 Z" id="Shape" fill="#0065FF" fill-rule="nonzero"></path>
                                        <path d="M75.5248485,155.665455 C75.4166371,155.73413 75.3031501,155.794116 75.1854545,155.844848 C74.8457989,155.983462 74.5399017,156.193456 74.2884848,156.460606 C73.8666667,156.945455 74.4048485,157.580606 74.2351515,158.724848 C74.1873199,159.019752 74.177543,159.319576 74.2060606,159.61697 C74.2196894,159.758877 74.2423617,159.899769 74.2739394,160.038788 C74.3466667,160.378182 74.3272727,161.115152 73.9684848,162.797576 L74.4193939,162.530909 L75.7042424,161.561212 C76.5478788,160.591515 76.7466667,160.41697 76.6157576,159.927273 C76.4557576,159.340606 76.1793939,158.312727 76.2036364,158.264242 C76.4509091,157.847273 76.8630303,157.667879 76.4218182,157.362424 C76.169697,157.187879 75.9806061,157.066667 75.9369697,157.032727 C75.7187879,156.96 75.5151515,156.64 75.5248485,155.665455 Z" id="Shape" fill="#D4B696" fill-rule="nonzero"></path>
                                        <path d="M74.3175758,156.426667 C75.0239978,158.387982 75.3081801,160.476391 75.1515152,162.555152 L75.1515152,162.758788 C75.0366625,164.033346 74.3681093,165.193242 73.3227986,165.931493 C72.2774879,166.669743 70.9607983,166.911925 69.7212121,166.593939 L69.4545455,166.511515 L69.4109091,166.511515 C68.6440032,166.238364 68.0324354,165.647305 67.733293,164.890159 C67.4341506,164.133013 67.4765852,163.283563 67.849697,162.56 C68.2817836,161.70897 68.5981226,160.80398 68.790303,159.869091 C69.2751515,157.561212 68.7224242,156.174545 69.8666667,155.020606 C70.6229409,154.352898 71.5554079,153.916962 72.5527273,153.764848 C73.0634831,153.624397 73.6039405,153.634499 74.1090909,153.793939 C74.5041087,153.950908 74.8599293,154.192535 75.1515152,154.501818 C75.4568782,154.820093 75.6900519,155.200447 75.8351515,155.61697 C75.2879371,155.8055 74.7800868,156.093118 74.3369697,156.465455 L74.3175758,156.426667 Z" id="Shape" fill="#172B4D" fill-rule="nonzero"></path>
                                        <ellipse id="Oval" fill="#091E42" fill-rule="nonzero" opacity="0.15" style="mix-blend-mode: multiply;" transform="translate(83.641682, 211.717484) rotate(-15.650000) translate(-83.641682, -211.717484) " cx="83.6416825" cy="211.717484" rx="17.76" ry="4.48"></ellipse>
                                        <rect id="Rectangle-path" fill="#48CC8C" fill-rule="nonzero" x="43.9030303" y="100.101818" width="1.9830303" height="3.25818182"></rect>
                                        <rect id="Rectangle-path" fill="#48CC8C" fill-rule="nonzero" x="72.8242424" y="28.8484848" width="1.9830303" height="3.25818182"></rect>
                                        <rect id="Rectangle-path" fill="#165ECC" fill-rule="nonzero" transform="translate(35.980923, 49.320315) rotate(-45.000000) translate(-35.980923, -49.320315) " x="34.9894079" y="47.6912242" width="1.9830303" height="3.25818182"></rect>
                                        <rect id="Rectangle-path" fill="#48CC8C" fill-rule="nonzero" transform="translate(196.773195, 25.933297) rotate(-45.000000) translate(-196.773195, -25.933297) " x="195.78168" y="24.3042065" width="1.9830303" height="3.25818182"></rect>
                                        <rect id="Rectangle-path" fill="#FFC400" fill-rule="nonzero" x="110.860606" y="0" width="1.9830303" height="3.25818182"></rect>
                                        <rect id="Rectangle-path" fill="#165ECC" fill-rule="nonzero" transform="translate(247.237531, 72.736373) rotate(-45.000000) translate(-247.237531, -72.736373) " x="246.246015" y="71.1072822" width="1.9830303" height="3.25818182"></rect>
                                        <rect id="Rectangle-path" fill="#48CC8C" fill-rule="nonzero" transform="translate(252.777431, 49.318959) rotate(-45.000000) translate(-252.777431, -49.318959) " x="251.785916" y="47.689868" width="1.9830303" height="3.25818182"></rect>
                                        <rect id="Rectangle-path" fill="#FFC400" fill-rule="nonzero" transform="translate(25.929649, 78.358835) rotate(45.000000) translate(-25.929649, -78.358835) " x="24.938134" y="76.7297442" width="1.9830303" height="3.25818182"></rect>
                                        <rect id="Rectangle-path" fill="#165ECC" fill-rule="nonzero" transform="translate(122.773599, 22.606219) rotate(45.000000) translate(-122.773599, -22.606219) " x="121.782084" y="20.9771278" width="1.9830303" height="3.25818182"></rect>
                                        <rect id="Rectangle-path" fill="#165ECC" fill-rule="nonzero" transform="translate(169.969822, 10.233603) rotate(45.000000) translate(-169.969822, -10.233603) " x="168.978307" y="8.60451206" width="1.9830303" height="3.25818182"></rect>
                                        <rect id="Rectangle-path" fill="#FFC400" fill-rule="nonzero" transform="translate(263.049063, 76.503006) rotate(45.000000) translate(-263.049063, -76.503006) " x="262.057548" y="74.873915" width="1.9830303" height="3.25818182"></rect>
                                        <path d="M48.8369697,67.8787879 C48.8369697,68.0043373 48.8017897,68.0517515 48.3295415,68.4336379 C47.2054261,69.3426606 46.7084848,70.0124181 46.7084848,71.3212121 C46.7084848,72.6302937 47.2064926,73.3012996 48.3303454,74.2088299 C48.8023528,74.589984 48.8369697,74.636591 48.8369697,74.7587879 C48.8369697,74.8818146 48.8015394,74.9295977 48.3309969,75.3106407 C47.2056797,76.2219169 46.7084848,76.8929601 46.7084848,78.2012121 C46.7084848,79.5100061 47.2054261,80.1797636 48.3295415,81.0887864 C48.8017897,81.4706727 48.8369697,81.5180869 48.8369697,81.6436364 C48.8369697,81.7691858 48.8017897,81.8166 48.3295415,82.1984864 C47.2054261,83.1075091 46.7084848,83.7772666 46.7084848,85.0860606 L49.7084848,85.0860606 C49.7084848,84.9605112 49.7436648,84.913097 50.215913,84.5312106 C51.3400285,83.6221879 51.8369697,82.9524303 51.8369697,81.6436364 C51.8369697,80.3348424 51.3400285,79.6650848 50.215913,78.7560621 C49.7436648,78.3741758 49.7084848,78.3267616 49.7084848,78.2012121 C49.7084848,78.0749187 49.7445338,78.026265 50.2167156,77.6438945 C51.3406551,76.7337339 51.8369697,76.0643785 51.8369697,74.7587879 C51.8369697,73.4523632 51.3398438,72.7830489 50.2173607,71.8766246 C49.7437209,71.4941524 49.7084848,71.446676 49.7084848,71.3212121 C49.7084848,71.1956627 49.7436648,71.1482485 50.215913,70.7663621 C51.3400285,69.8573394 51.8369697,69.1875819 51.8369697,67.8787879 L48.8369697,67.8787879 Z" id="Shape" fill="#0065FF" fill-rule="nonzero"></path>
                                        <path d="M140.337576,1.62909091 C140.337576,1.75464036 140.302396,1.80205454 139.830148,2.18394091 C138.706032,3.09296364 138.209091,3.76272117 138.209091,5.07151515 C138.209091,6.38059671 138.707099,7.05160264 139.830951,7.95913293 C140.302959,8.34028702 140.337576,8.38689405 140.337576,8.50909091 C140.337576,8.63211763 140.302145,8.6799007 139.831603,9.06094369 C138.706286,9.97221989 138.209091,10.6432631 138.209091,11.9515152 C138.209091,13.2603091 138.706032,13.9300667 139.830148,14.8390894 C140.302396,15.2209758 140.337576,15.2683899 140.337576,15.3939394 C140.337576,15.5194888 140.302396,15.566903 139.830148,15.9487894 C138.706032,16.8578121 138.209091,17.5275697 138.209091,18.8363636 L141.209091,18.8363636 C141.209091,18.7108142 141.244271,18.6634 141.716519,18.2815136 C142.840635,17.3724909 143.337576,16.7027334 143.337576,15.3939394 C143.337576,14.0851454 142.840635,13.4153879 141.716519,12.5063652 C141.244271,12.1244788 141.209091,12.0770646 141.209091,11.9515152 C141.209091,11.8252217 141.24514,11.776568 141.717322,11.3941975 C142.841261,10.4840369 143.337576,9.81468155 143.337576,8.50909091 C143.337576,7.20266622 142.84045,6.5333519 141.717967,5.62692767 C141.244327,5.24445541 141.209091,5.19697904 141.209091,5.07151515 C141.209091,4.9459657 141.244271,4.89855152 141.716519,4.51666515 C142.840635,3.60764243 143.337576,2.93788489 143.337576,1.62909091 L140.337576,1.62909091 Z" id="Shape" fill="#0065FF" fill-rule="nonzero"></path>
                                        <path d="M248.798182,99.0981818 C248.798182,99.2237313 248.763002,99.2711455 248.290754,99.6530318 C247.166638,100.562055 246.669697,101.231812 246.669697,102.540606 C246.669697,103.849688 247.167705,104.520694 248.291557,105.428224 C248.763565,105.809378 248.798182,105.855985 248.798182,105.978182 C248.798182,106.101209 248.762752,106.148992 248.292209,106.530035 C247.166892,107.441311 246.669697,108.112354 246.669697,109.420606 C246.669697,110.7294 247.166638,111.399158 248.290754,112.30818 C248.763002,112.690067 248.798182,112.737481 248.798182,112.86303 C248.798182,112.98858 248.763002,113.035994 248.290754,113.41788 C247.166638,114.326903 246.669697,114.996661 246.669697,116.305455 L249.669697,116.305455 C249.669697,116.179905 249.704877,116.132491 250.177125,115.750605 C251.301241,114.841582 251.798182,114.171824 251.798182,112.86303 C251.798182,111.554236 251.301241,110.884479 250.177125,109.975456 C249.704877,109.59357 249.669697,109.546156 249.669697,109.420606 C249.669697,109.294313 249.705746,109.245659 250.177928,108.863288 C251.301867,107.953128 251.798182,107.283772 251.798182,105.978182 C251.798182,104.671757 251.301056,104.002443 250.178573,103.096019 C249.704933,102.713546 249.669697,102.66607 249.669697,102.540606 C249.669697,102.415057 249.704877,102.367642 250.177125,101.985756 C251.301241,101.076733 251.798182,100.406976 251.798182,99.0981818 L248.798182,99.0981818 Z" id="Shape" fill="#0065FF" fill-rule="nonzero"></path>
                                        <path d="M103.646061,138.909091 C102.611696,138.243698 101.683326,137.426471 100.892121,136.484848 C99.4841885,134.76896 98.5542629,132.71175 98.1963636,130.521212 C98.550303,128.751515 99.5636364,125.187879 102.642424,123.316364 C104.024242,122.477576 106.24,121.735758 106.826667,122.404848 C107.413333,123.073939 105.517576,125.561212 105.100606,126.128485 L101.187879,130.676364 C102.3551,132.387787 103.260421,134.263796 103.873939,136.242424 L103.646061,138.909091 Z" id="Shape" fill="#F1DAD5" fill-rule="nonzero"></path>
                                        <ellipse id="Oval" fill="#091E42" fill-rule="nonzero" opacity="0.15" style="mix-blend-mode: multiply;" cx="115.345455" cy="176.019394" rx="12.0630303" ry="4.48"></ellipse>
                                        <path d="M104.310303,134.81697 C104.382937,134.536068 104.475287,134.260638 104.586667,133.992727 C104.723706,133.677991 104.885845,133.374791 105.071515,133.086061 C105.265455,133.139394 105.556364,133.21697 105.963636,133.284848 C106.370909,133.352727 106.56,133.367273 106.695758,133.381818 C107.486061,133.483636 108.993939,133.643636 113.052121,133.915152 C114.178993,135.159889 114.991898,136.656032 115.42303,138.278788 C118.17697,148.324848 118.724848,152.25697 118.724848,152.25697 C118.724848,152.25697 119.830303,159.718788 120.916364,168.179394 C120.362568,168.543185 119.770796,168.845574 119.151515,169.081212 C118.71147,169.234418 118.253594,169.330555 117.789091,169.367273 C115.530412,165.739774 114.549124,161.461355 115.001212,157.212121 C114.582714,155.124573 113.974118,153.079688 113.18303,151.10303 C112.606061,149.648485 110.807273,145.18303 109.895758,145.357576 C108.984242,145.532121 109.701818,149.808485 109.779394,157.813333 C109.818182,162.123636 109.779394,165.653333 109.779394,167.995152 C109.186063,168.320397 108.485987,168.390405 107.84,168.189091 C107.37596,168.082047 106.949053,167.852688 106.603636,167.524848 C106.327204,166.253135 106.115217,164.968264 105.968485,163.675152 C105.890909,162.972121 105.852121,162.4 105.808485,161.590303 C105.730909,160.232727 105.643636,158.327273 105.595152,155.941818 C105.197576,151.161212 105.110303,149.522424 105.086061,149.061818 C105.077852,148.64977 105.045473,148.238558 104.989091,147.830303 C104.989091,147.689697 104.945455,147.553939 104.901818,147.345455 C104.610909,145.890909 103.326061,139.713939 103.665455,137.473939 C103.806461,136.571955 104.022152,135.683242 104.310303,134.81697 L104.310303,134.81697 Z" id="Shape" fill="#F0D0B4" fill-rule="nonzero"></path>
                                        <path d="M120.979394,167.859394 C120.412844,168.373691 119.73112,168.744482 118.991515,168.940606 C118.380544,169.105106 117.745981,169.164135 117.115152,169.115152 C117.517576,170.569697 117.905455,171.733333 118.186667,172.509091 C118.787879,174.206061 119.311515,175.374545 119.461818,177.18303 C119.495758,177.570909 119.500606,177.890909 119.500606,178.104242 L121.527273,178.104242 L121.866667,177.793939 L122.404848,178.089697 L127.563636,178.089697 C127.888485,178.089697 128.116364,177.832727 128.014545,177.580606 L128.014545,177.580606 L125.958788,177.047273 C123.820606,176.489697 122.264242,174.972121 121.968485,173.144242 C121.769697,171.922424 121.541818,170.574545 121.347879,169.609697 C121.228283,169.021414 121.105455,168.43798 120.979394,167.859394 Z" id="Shape" fill="#172B4D" fill-rule="nonzero"></path>
                                        <path d="M106.380606,167.272727 C107.616734,167.736771 108.98209,167.719466 110.206061,167.224242 L110.109091,173.284848 L111.151515,173.328485 C111.515152,173.328485 111.713939,173.687273 111.500606,173.939394 L110.046061,175.447273 C109.874171,176.004007 109.516482,176.484919 109.032727,176.809697 C108.822168,176.952655 108.581687,177.04553 108.329697,177.081212 C107.985648,177.123017 107.637262,177.05334 107.335758,176.882424 C106.758788,176.528485 106.78303,175.61697 106.739394,174.012121 C106.710303,172.833939 106.62303,171.655758 106.574545,170.477576 C106.564848,169.69697 106.506667,168.615758 106.380606,167.272727 Z" id="Shape" fill="#172B4D" fill-rule="nonzero"></path>
                                        <path d="M130.526061,114.598788 C130.298182,114.433939 130.181818,114.453333 130.128485,114.332121 C130.075152,114.210909 130.230303,113.881212 130.613333,113.425455 C131.114606,112.808638 131.696831,112.262293 132.344242,111.801212 C132.600321,111.620152 132.869325,111.458102 133.149091,111.316364 C133.391515,111.195152 134.215758,110.797576 134.390303,110.957576 C134.487273,111.049697 134.453333,111.258182 134.249697,111.364848 C134.046061,111.471515 134.206061,111.364848 133.881212,111.539394 C133.730909,111.61697 132.858182,112.227879 133.076364,112.436364 C133.110303,112.470303 133.163636,112.484848 133.197576,112.518788 C133.231222,112.56076 133.252989,112.610991 133.260606,112.664242 C133.304242,112.785455 133.410909,112.824242 133.469091,112.882424 C133.653333,113.05697 133.498182,113.517576 133.469091,113.570909 C133.315614,113.92651 133.014595,114.197427 132.644848,114.312727 C132.489702,114.640214 132.241895,114.914993 131.932121,115.10303 C131.713939,115.233939 131.398788,115.418182 131.127273,115.306667 C130.855758,115.195152 130.909091,114.909091 130.526061,114.598788 Z" id="Shape" fill="#F1DAD5" fill-rule="nonzero"></path>
                                        <path d="M103.922424,134.904242 C103.347071,137.137778 102.807273,139.471515 102.30303,141.905455 C101.37697,146.429091 100.727273,150.729697 100.276364,154.753939 C101.239299,155.251715 102.243436,155.665374 103.277576,155.990303 C110.14303,158.147879 116.126061,155.655758 117.18303,155.195152 C118.703727,154.530744 120.135428,153.67889 121.444848,152.659394 C119.893333,146.210909 118.535758,141.507879 118.050909,140.38303 C117.640473,139.329783 117.13919,138.314238 116.552727,137.347879 C115.582886,135.767961 114.396396,134.331769 113.027879,133.081212 L103.922424,134.904242 Z" id="Shape" fill="url(#linearGradient-11)" fill-rule="nonzero"></path>
                                        <path d="M105.50303,113.153939 C106.235152,112.290909 108.174545,112.184242 109.207273,112.955152 C109.30818,113.036156 109.403733,113.123612 109.493333,113.21697 C110.947879,114.618182 112.140606,115.733333 112.072727,117.095758 C112.059679,117.332414 112.018998,117.566733 111.951515,117.793939 C112.280774,117.866745 112.581086,118.03546 112.814545,118.278788 C113.454545,119.010909 113.255758,120.261818 112.707879,121.008485 C111.843961,122.039764 110.376687,122.326751 109.187879,121.69697 C108.998259,121.582491 108.818271,121.45277 108.649697,121.309091 C108.465455,121.110303 108.189091,120.8 107.883636,120.402424 C106.375758,118.467879 104.242424,114.62303 105.50303,113.153939 Z" id="Shape" fill="#172B4D" fill-rule="nonzero"></path>
                                        <path d="M107.801212,112.872727 C108.607121,113.513469 109.310212,114.273787 109.886061,115.127273 C109.949091,115.238788 109.968485,115.292121 110.230303,115.374545 C110.492121,115.45697 110.81697,115.452121 110.787879,115.641212 C110.758788,115.830303 110.448485,116.126061 110.438788,116.281212 L111.064242,118.220606 C111.154232,118.495528 111.043953,118.796291 110.797576,118.947879 L110.312727,119.253333 L107.219394,121.144242 C107.510362,119.867177 107.709658,118.570944 107.815758,117.265455 C107.835152,117.02303 107.851313,116.783838 107.864242,116.547879 C108.177924,116.141875 108.37865,115.660132 108.446061,115.151515 C108.500056,114.679949 108.445323,114.202281 108.286061,113.755152 C108.172096,113.437234 108.008449,113.139396 107.801212,112.872727 L107.801212,112.872727 Z" id="Shape" fill="#F1DAD5" fill-rule="nonzero"></path>
                                        <path d="M109.730909,122.666667 L105.76,123.025455 C105.876203,121.638856 105.749869,120.242615 105.386667,118.899394 L109.357576,118.540606 L109.730909,122.666667 Z" id="Shape" fill="#F1DAD5" fill-rule="nonzero"></path>
                                        <path d="M101.473939,124.16 L102.147879,123.578182 C102.737586,123.125503 103.391158,122.76277 104.087273,122.501818 C106.026667,121.793939 109.944242,121.672727 112.547879,121.50303 C114.025756,121.433946 115.4987,121.283415 116.96,121.052121 C118.816555,120.740542 120.641868,120.265149 122.414545,119.631515 C122.933333,119.238788 123.641212,118.705455 124.494545,118.08 C126.787879,116.407273 127.704242,115.859394 129.187879,114.632727 C129.716364,114.196364 130.390303,113.609697 131.127273,112.872727 C131.438509,113.553347 131.555948,114.306636 131.466667,115.049697 C129.790717,117.762143 127.52537,120.06229 124.838788,121.779394 C123.243951,122.745926 121.560326,123.557703 119.810909,124.203636 C117.976266,124.924015 116.089647,125.504264 114.167273,125.939394 C114.501707,126.40403 114.746691,126.926882 114.889697,127.481212 C115.132121,128.450909 114.889697,128.935758 114.744242,130.33697 C114.599334,131.812208 114.599334,133.298095 114.744242,134.773333 C114.744242,134.773333 113.289697,135.665455 109.139394,135.665455 C107.392968,135.671901 105.648695,135.542215 103.922424,135.277576 C104.043174,132.754608 103.724911,130.229833 102.981818,127.815758 C102.59242,126.553489 102.087664,125.329741 101.473939,124.16 Z" id="Shape" fill="#F1DAD5" fill-rule="nonzero"></path>
                                        <path d="M101.076364,131.054545 L101.464242,131.054545 L101.187879,130.637576 L105.100606,126.089697 C105.517576,125.522424 107.447273,123.069091 106.826667,122.366061 C106.206061,121.66303 104.024242,122.433939 102.642424,123.277576 C99.5636364,125.149091 98.550303,128.707879 98.1963636,130.482424 C98.2545455,130.81697 98.3369697,131.229091 98.4581818,131.699394 C99.2585629,131.256785 100.161978,131.034277 101.076364,131.054545 L101.076364,131.054545 Z" id="Shape" fill="#2DB07C" fill-rule="nonzero"></path>
                                        <path d="M121.270303,123.602424 L121.270303,120.014545 C119.854712,120.462278 118.40958,120.8106 116.945455,121.05697 C115.484148,121.288214 114.011207,121.438746 112.533333,121.507879 C109.929697,121.677576 106.002424,121.798788 104.072727,122.506667 C103.376612,122.767619 102.72304,123.130352 102.133333,123.58303 L101.459394,124.164848 C102.070634,125.330099 102.57375,126.548938 102.962424,127.806061 C103.712633,130.220526 104.037467,132.747015 103.922424,135.272727 C105.648695,135.537367 107.392968,135.667052 109.139394,135.660606 C113.304242,135.660606 114.744242,134.768485 114.744242,134.768485 C114.599334,133.293247 114.599334,131.807359 114.744242,130.332121 C114.899394,128.940606 115.132121,128.446061 114.889697,127.476364 C114.746691,126.922033 114.501707,126.399181 114.167273,125.934545 C116.089647,125.499415 117.976266,124.919166 119.810909,124.198788 C120.242424,124.029091 120.727273,123.835152 121.270303,123.602424 Z" id="Shape" fill="url(#linearGradient-12)" fill-rule="nonzero"></path>
                                        <path d="M107.321212,112.853333 C107.676707,113.591243 107.801732,114.41911 107.68,115.229091 C107.573333,116.465455 108.164848,116.993939 108.57697,119.025455 C108.858182,120.441212 108.998788,121.149091 108.722424,121.711515 C107.893333,123.393939 104.174545,124.135758 102.967273,122.516364 C102.293333,121.619394 102.632727,120.300606 102.773333,119.849697 C102.315637,118.888413 102.126333,117.821272 102.225455,116.761212 C102.260367,116.432738 102.325284,116.10815 102.419394,115.791515 C102.812121,114.506667 104.867879,112.227879 107.321212,112.853333 Z" id="Shape" fill="#172B4D" fill-rule="nonzero"></path>
                                        <polygon id="Shape" fill="#B5917C" fill-rule="nonzero" points="3.82545455 204.635152 4.01454545 207.321212 6.68606061 206.729697 6.48242424 204.635152"></polygon>
                                        <path d="M38.5551515,191.175758 C38.4105755,191.514228 38.325292,191.875043 38.3030303,192.242424 C38.3023825,192.532523 38.3884953,192.816188 38.550303,193.05697 C39.0593939,193.711515 40.489697,193.6 41.3042424,193.008485 C41.638106,192.743216 41.9151283,192.413428 42.1187879,192.038788 C42.4824242,191.481212 42.4436364,191.301818 42.4,191.214545 C42.3153027,191.082475 42.1771891,190.993941 42.0218182,190.972121 C42.3515152,190.618182 42.3854545,190.409697 42.3369697,190.283636 C42.249697,190.041212 41.7987879,189.861818 41.7987879,189.861818 C41.8230303,189.789091 41.9878788,189.313939 41.7987879,189.168485 C41.7357576,189.12 41.6533333,189.124848 41.3139394,189.197576 C40.6642424,189.333333 40.6836364,189.372121 40.5672727,189.357576 C40.169697,189.294545 40.1163636,188.838788 39.7672727,188.829091 C39.5768626,188.84328 39.4010633,188.936454 39.2824242,189.086061 C39.04,189.323636 39.030303,189.570909 38.8509091,190.17697 C38.7490909,190.647273 38.7490909,190.545455 38.5551515,191.175758 Z" id="Shape" fill="#B5917C" fill-rule="nonzero"></path>
                                        <path d="M6.96242424,207.030303 C6.43393939,206.395152 6.28363636,206.293333 6.1769697,206.230303 C5.92806086,206.066567 5.63610571,205.980499 5.33818182,205.98303 C4.48969697,206.050909 3.78666667,207.326061 3.82545455,208.378182 C3.8635034,208.814039 3.98881592,209.237793 4.19393939,209.624242 C4.46545455,210.249697 4.64484848,210.317576 4.74666667,210.332121 C4.90645485,210.332325 5.0585126,210.263369 5.16363636,210.14303 C5.28,210.627879 5.44,210.768485 5.57575758,210.802424 C5.83272727,210.860606 6.24,210.579394 6.24,210.579394 C6.24,210.579394 6.60363636,211.064242 6.83151515,210.972121 C6.90909091,210.947879 6.95272727,210.870303 7.08848485,210.530909 C7.34060606,209.895758 7.29212121,209.890909 7.37454545,209.798788 C7.65090909,209.493333 8.07757576,209.701818 8.27636364,209.410909 C8.36465059,209.24177 8.38040126,209.044012 8.32,208.86303 C8.24727273,208.523636 8.0630303,208.378182 7.62666667,207.893333 C7.30666667,207.515152 7.39393939,207.573333 6.96242424,207.030303 Z" id="Shape" fill="#B5917C" fill-rule="nonzero"></path>
                                        <path d="M19.7042424,203.529697 C24.7612121,208.824242 25.3381818,212.678788 24.9987879,215.13697 C24.6109091,217.968485 22.9430303,219.427879 19.1806061,225.372121 C16.969697,228.848485 15.3357576,231.806061 14.2787879,233.827879 L11.8545455,232.41697 C12.5909258,230.488317 12.9449801,228.434802 12.8969697,226.370909 C12.8078717,225.329798 12.9198028,224.281266 13.2266667,223.282424 C13.4756357,222.617686 13.7839512,221.976714 14.1478788,221.367273 C15.2436364,219.330909 16.2327273,217.774545 16.8145455,216.906667 C17.2509091,216.25697 17.6145455,215.718788 17.8715152,215.350303 C17.3866667,214.467879 16.3684848,212.630303 15.0545455,210.210909 C13.0375758,206.506667 12.0339394,204.610909 12.2424242,202.235152 C12.2884735,201.706155 12.387557,201.183125 12.5381818,200.673939 C14.6138138,202.27307 17.0932472,203.2635 19.6993939,203.534545 L19.7042424,203.529697 Z" id="Shape" fill="url(#linearGradient-13)" fill-rule="nonzero"></path>
                                        <path d="M19.3939394,190.215758 C20.0921212,191.772121 20.6060606,193.076364 21.8957576,194.443636 C23.1173276,195.729611 24.6259209,196.708203 26.2981818,197.299394 C28.1510479,197.529418 30.0282372,197.473822 31.8642424,197.134545 C34.7925638,196.569434 37.5416402,195.307154 39.8787879,193.454545 L38.3030303,191.287273 C34.6242106,192.198118 30.8492816,192.663676 27.0593939,192.673939 C25.2218182,189.929697 23.9418182,187.859394 23.0642424,186.370909 C22.4,185.255758 21.609697,183.825455 20.1163636,183.539394 C19.7769697,183.476364 18.8993939,183.306667 18.3660606,183.757576 C17.0036364,184.911515 18.9090909,189.12 19.3939394,190.215758 Z" id="Shape" fill="#FFC400" fill-rule="nonzero"></path>
                                        <path d="M15.2824242,191.587879 L14.5066667,204.635152 L22.88,203.466667 C23.7090909,201.139394 23.5636364,199.641212 23.2484848,198.686061 C23.1228702,198.360491 23.0255406,198.024704 22.9575758,197.682424 C22.7823562,196.528046 22.9509875,195.347627 23.4424242,194.288485 C23.9272727,193.110303 24.16,190.94303 23.1127273,186.618182 C23.007093,186.139015 22.8201463,185.681488 22.56,185.265455 C21.1733333,183.059394 18.1963636,182.94303 17.7648485,182.933333 L17.6533333,184.790303 C16.7085315,184.809424 15.9253769,185.528181 15.8254545,186.467879 L15.2824242,191.587879 Z" id="Shape" fill="#FFC400" fill-rule="nonzero"></path>
                                        <path d="M18.7975758,183.437576 C19.2432638,183.441626 19.6799126,183.563754 20.0630303,183.791515 C21.1781818,184.48 21.5175758,186.356364 21.6193939,187.127273 C22.1042424,191.45697 21.8036364,200.523636 21.7842424,201.027879 L12.2666667,201.997576 L12.9018182,186.380606 L14.1478788,184.853333 C14.9055493,183.906203 16.0626444,183.368019 17.2751515,183.398788 L18.7975758,183.437576 Z" id="Shape" fill="#FFE380" fill-rule="nonzero"></path>
                                        <path d="M15.8981818,180.882424 C15.7527273,181.149091 16.1648485,181.677576 15.9951515,182.637576 C15.9595673,182.841744 15.9026912,183.041623 15.8254545,183.233939 C16.6088566,183.729758 17.5003674,184.029146 18.4242424,184.106667 C19.0542423,184.157883 19.6883733,184.10381 20.3006061,183.946667 C20.5785859,182.414545 20.7175758,181.648485 20.7175758,181.648485 L20.7175758,181.784242 C17.0133333,180.518788 16.0630303,180.57697 15.8981818,180.882424 Z" id="Shape" fill="#9C7761" fill-rule="nonzero"></path>
                                        <path d="M20.3636364,173.716364 C20.5624242,174.14303 20.7563636,174.613333 20.9406061,175.132121 C21.1669577,175.778617 21.3499893,176.439474 21.4884848,177.110303 C21.5515152,177.212121 21.6581818,177.381818 21.8133333,177.595152 C22.2981818,178.215758 22.7345455,178.564848 22.6375758,178.744242 C22.6375758,178.744242 22.1527273,178.996364 22.1042424,179.073939 C21.9490909,179.233939 22.2012121,180.761212 21.9393939,181.415758 C21.5612121,182.385455 17.5030303,183.767273 16.1212121,181.590303 C15.7579394,181.164463 15.4485364,180.695473 15.2,180.193939 C15.3943612,180.157719 15.580202,180.085357 15.7478788,179.980606 C16.0818566,179.754787 16.3402971,179.433847 16.489697,179.059394 C16.8436364,178.264242 17.7309091,176.25697 19.0012121,175.413333 C19.3076691,175.226731 19.582598,174.992714 19.8157576,174.72 C20.0560334,174.42031 20.2415068,174.080549 20.3636364,173.716364 L20.3636364,173.716364 Z" id="Shape" fill="#B5917C" fill-rule="nonzero"></path>
                                        <path d="M19.1224242,175.452121 C19.5684848,177.570909 19.4521212,178.172121 19.2242424,178.269091 C19.1127273,178.317576 19.0206061,178.230303 18.2884848,177.939394 C17.4206061,177.595152 17.2945455,177.609697 17.2266667,177.667879 C17.0181818,177.837576 17.2557576,178.458182 17.3624242,178.705455 L16.0387879,180.276364 C16.117471,180.583096 16.0848295,180.907794 15.9466667,181.192727 C15.9235164,181.234802 15.8976009,181.275295 15.8690909,181.313939 C15.6063442,181.131383 15.3568332,180.930478 15.1224242,180.712727 C13.929697,179.607273 12.4024242,177.37697 13.1345455,175.636364 C13.2905305,175.277896 13.525956,174.959575 13.8230303,174.705455 C13.9142169,174.622893 14.0097036,174.545209 14.1090909,174.472727 C15.2872727,173.614545 18.6424242,173.275152 20,172.533333 C20.1066667,172.475152 20.4072727,172.295758 20.649697,172.407273 C20.8921212,172.518788 20.96,172.892121 20.9793939,173.134545 C20.6602158,174.111856 20.00368,174.943698 19.1272727,175.481212 L19.1224242,175.452121 Z" id="Shape" fill="#253858" fill-rule="nonzero"></path>
                                        <path d="M41.9781818,207.74303 C41.6193939,206.923636 41.0084848,206.56 40.2230303,205.881212 C38.9834269,204.796552 37.9345324,203.511657 37.12,202.08 C35.7483551,200.321085 33.5764374,199.380347 31.3551515,199.58303 L31.0109091,199.61697 L12.2327273,202.235152 L12.2909091,202.642424 C12.3765489,203.257211 12.5547276,203.855499 12.8193939,204.41697 C13.2539197,205.313994 13.8913577,206.097511 14.6812121,206.705455 C16.0312941,207.753194 17.6428828,208.410575 19.3406061,208.606061 C22.6618182,209.090909 24.969697,208.121212 28.7515152,207.122424 C29.5515152,206.909091 30.4921212,206.671515 31.5587879,206.433939 C32.3248485,207.523232 33.0892929,208.57697 33.8521212,209.595152 C34.4193939,210.327273 35.4957576,211.723636 36.5430303,212.329697 C36.8969697,212.533333 38.0460606,213.115152 40.0581818,212.620606 L41.6969697,211.350303 C42.1236364,210.356364 42.5260606,208.969697 41.9781818,207.74303 Z" id="Shape" fill="url(#linearGradient-14)" fill-rule="nonzero"></path>
                                        <path d="M50.6812121,213.944242 C49.5757576,215.258182 47.2145455,218.152727 46.3757576,217.958788 C46.2467319,217.916884 46.1060517,217.930952 45.9878788,217.997576 C45.8618182,218.104242 45.8860606,218.307879 45.8763636,218.419394 C45.8763636,218.671515 45.6533333,219.015758 44.8048485,219.418182 C44.6987297,219.519023 44.5584973,219.576154 44.4121212,219.578182 C44.2726943,219.581873 44.138431,219.525341 44.0436364,219.42303 L42.5551515,217.827879 C42.2323502,217.44725 42.2778586,216.87731 42.6569697,216.552727 C42.9184329,216.335336 43.1499421,216.084263 43.3454545,215.806061 C43.9612121,214.933333 43.830303,214.288485 44.3151515,214.036364 C44.8,213.784242 45.1006061,214.206061 45.8375758,214.370909 C46.163475,214.350036 46.4875051,214.306292 46.8072727,214.24 C48.085911,213.95857 49.2690719,213.348607 50.24,212.470303 L51.2678788,213.28 L50.6812121,213.944242 Z" id="Shape" fill="#505F79" fill-rule="nonzero"></path>
                                        <polygon id="Shape" fill="#505F79" fill-rule="nonzero" points="37.4254545 212.89697 42.9624242 218.273939 46.1430303 215.267879 42.0751515 208.184242"></polygon>
                                        <path d="M20,237.197576 C18.2836364,237.197576 14.5454545,237.197576 14.1818182,236.41697 C14.1818182,236.387879 14.0751515,236.174545 13.9054545,236.145455 C13.7357576,236.116364 13.6,236.261818 13.5078788,236.329697 C13.3042424,236.475152 12.9066667,236.538182 12.0533333,236.135758 C11.9076516,236.117419 11.7742907,236.044677 11.68,235.932121 C11.5878541,235.827164 11.5454453,235.687568 11.5636364,235.549091 L11.849697,233.386667 C11.9382869,232.8963 12.4060054,232.56933 12.8969697,232.654545 C13.2306991,232.718578 13.5714378,232.738142 13.910303,232.712727 C14.9769697,232.630303 15.4084848,232.140606 15.8836364,232.329697 C16.3587879,232.518788 16.2521212,233.042424 16.5915152,233.716364 C16.8120887,233.950618 17.0486137,234.169323 17.2993939,234.370909 C18.3289364,235.181767 19.5522827,235.709878 20.8484848,235.90303 L20.8727273,237.212121 L20,237.197576 Z" id="Shape" fill="#505F79" fill-rule="nonzero"></path>
                                        <polygon id="Shape" fill="#505F79" fill-rule="nonzero" points="12.3927273 226.288485 11.7575758 233.98303 16.0969697 234.530909 18.9866667 226.889697"></polygon>
                                        <path d="M12.1212121,189.716364 C11.8206061,192.746667 11.3842424,193.866667 11.2678788,196.019394 C11.1680826,198.020926 11.3774091,200.025882 11.8884848,201.963636 C12.16151,202.15005 12.4502822,202.312281 12.7515152,202.448485 C15.0545455,203.447273 17.4254545,202.637576 18.409697,202.230303 C18.5260606,201.612929 18.6375758,200.989091 18.7442424,200.358788 C19.5845746,195.232544 19.8965123,190.033582 19.6751515,184.843636 C19.6817963,184.335867 19.4823483,183.847086 19.1223576,183.488923 C18.762367,183.13076 18.2725778,182.933802 17.7648485,182.94303 L14.8557576,182.996364 C13.5523036,183.02097 12.4712859,184.012596 12.3345455,185.309091 C12.3403729,186.780898 12.2691643,188.252001 12.1212121,189.716364 L12.1212121,189.716364 Z" id="Shape" fill="#FFC400" fill-rule="nonzero"></path>
                                        <path d="M17.2751515,183.389091 C17.0715152,182.749091 11.4084848,182.419394 6.04606061,186.210909 C4.87757576,187.035152 0.824242424,189.871515 0.484848485,194.157576 L0.484848485,194.385455 C0.471044964,195.554119 0.663065758,196.716091 1.05212121,197.818182 C1.67757576,199.786667 2.07515152,200.019394 2.27878788,201.498182 C2.35151515,202.026667 2.31272727,202.08 2.38060606,202.584242 C2.53942469,203.785095 2.94377808,204.94039 3.56848485,205.978182 L5.23151515,205.827879 C5.87151515,205.764848 6.51151515,205.701818 6.89454545,205.677576 C6.73939394,203.253333 6.52282828,200.749899 6.24484848,198.167273 C6.07353535,196.593131 5.88444444,195.052929 5.67757576,193.546667 C8.2230303,192.232727 10.2157576,191.248485 11.4278788,190.637576 C14.56,189.105455 16.6981818,188.140606 16.6981818,186.758788 C16.6981818,186.089697 16.1745455,185.507879 16.470303,184.586667 C16.7321212,183.815758 17.3430303,183.602424 17.2751515,183.389091 Z" id="Shape" fill="#FFC400" fill-rule="nonzero"></path>
                                        <polygon id="Shape" fill="#0065FF" fill-rule="nonzero" points="83.4375758 50.8169697 83.4375758 149.939394 72.2472727 149.047273 72.2472727 51.7575758"></polygon>
                                        <path d="M81.1927273,59.4909091 C81.1927273,61.6 79.670303,63.369697 77.7987879,63.4521212 C75.9272727,63.5345455 74.4775758,61.910303 74.4775758,59.8351515 C74.4775758,57.76 75.9563636,55.990303 77.7987879,55.8787879 C79.6412121,55.7672727 81.1927273,57.3818182 81.1927273,59.4909091 Z" id="Shape" fill="#FFFFFF" fill-rule="nonzero"></path>
                                    </g>
                                </g>
                            </g>
                        </g>
                    </g>
                </g>
            </g>
        </g>
    </g>
</svg>